# xmcd CD database file
#
# Track frame offsets:
#	150
#	24472
#	39385
#
# Disc length: 816 seconds
#
# Revision: 0
# Processed by: cddbd v1.5.1PL2 Copyright (c) Steve Scherf et al.
# Submitted via: CDex 1.51
#
DISCID=19032e03
DTITLE=CLOUD - Another mile
DYEAR=2000
DGENRE=Rock
TTITLE0=Another mile
TTITLE1=ミルクティー
TTITLE2=裏返った帽子
EXTD=YEAR: 2000
EXTT0=
EXTT1=
EXTT2=
PLAYORDER=
